<svg width="16" height="17" viewBox="0 0 16 17" fill="none" xmlns="http://www.w3.org/2000/svg">
<path d="M11.0618 10.5918C11.3666 10.8941 11.6687 11.1937 11.9694 11.4932C13.2387 12.7576 14.5079 14.022 15.7786 15.2864C15.9795 15.4866 16.046 15.7254 15.9698 15.9946C15.895 16.2568 15.7135 16.4252 15.446 16.4832C15.1869 16.5384 14.9624 16.4639 14.774 16.2762C14.0008 15.5032 13.2248 14.7329 12.4516 13.9613C11.677 13.1897 10.9024 12.418 10.1292 11.6464C10.1098 11.6271 10.0946 11.6023 10.0766 11.5788C8.56343 12.7231 6.88262 13.1496 5.0286 12.8032C3.49328 12.5161 2.24341 11.7348 1.28592 10.5049C-0.60967 8.07268 -0.383807 4.57899 1.79861 2.38974C3.98519 0.196352 7.4937 -0.0548731 9.94632 1.81827C11.3209 2.86873 12.1329 4.25875 12.3477 5.97177C12.5625 7.68066 12.1066 9.21838 11.0618 10.5918ZM1.41201 6.73235C1.40786 9.37022 3.5404 11.5043 6.18701 11.5112C8.83363 11.5181 10.9828 9.39092 10.9883 6.75996C10.9925 4.11519 8.85996 1.97563 6.21473 1.97149C3.56257 1.96597 1.41617 4.09449 1.41201 6.73235Z" fill="#797979"/>
</svg>
